# xmcd
#
# Track frame offsets:
#	150
#	13864
#	38526
#	57342
#	81692
#	131423
#	153295
#	181676
#	208103
#	242467
#	296795
#	314310
#
# Disc length: 4439 seconds
#
# Revision: 2
# Processed by: cddbd v1.5.1PL2 Copyright (c) Steve Scherf et al.
# Submitted via: freedbtool 1.11
#
DISCID=a111550c
DTITLE=Stevie Ray Vaughan - Ocean Center, Daytona Beach, Florida, 1987 (sdb)
DYEAR=1900
DGENRE=
TTITLE0=Scuttle Buttin
TTITLE1=Say What
TTITLE2=Looking Out The Window
TTITLE3=Look At Little Sister
TTITLE4=Ain't Gonna Give Up
TTITLE5=Superstition
TTITLE6=Willie The Wimp
TTITLE7=Cold Shot
TTITLE8=Couldn't Stand The Weather
TTITLE9=Life Without You
TTITLE10=Love Struck Baby
TTITLE11=Rude Mood
EXTD=
EXTT0=
EXTT1=
EXTT2=
EXTT3=
EXTT4=
EXTT5=
EXTT6=
EXTT7=
EXTT8=
EXTT9=
EXTT10=
EXTT11=
PLAYORDER=
